<?xml version="1.0" standalone="no"?>
<!DOCTYPE svg PUBLIC "-//W3C//DTD SVG 20010904//EN"
 "http://www.w3.org/TR/2001/REC-SVG-20010904/DTD/svg10.dtd">
<svg version="1.0" xmlns="http://www.w3.org/2000/svg"
 width="1277.000000pt" height="1280.000000pt" viewBox="0 0 1277.000000 1280.000000"
 preserveAspectRatio="xMidYMid meet">

<g transform="translate(0.000000,1280.000000) scale(0.100000,-0.100000)"
fill="#000000" stroke="none">
<path d="M6090 12739 c-1773 -78 -3441 -907 -4584 -2279 -1159 -1391 -1662
-3176 -1405 -4990 122 -862 444 -1726 925 -2485 367 -579 851 -1118 1399
-1556 1725 -1380 4059 -1760 6147 -999 1185 432 2233 1231 2979 2270 327 455
610 991 802 1517 397 1088 488 2281 261 3423 -473 2383 -2283 4296 -4639 4905
-436 112 -852 174 -1326 195 -245 11 -300 11 -559 -1z m655 -1189 c538 -39
1066 -159 1560 -355 148 -58 502 -230 650 -314 151 -87 457 -292 590 -395 259
-202 601 -530 794 -761 188 -225 391 -516 531 -760 90 -156 258 -505 323 -670
317 -806 425 -1678 317 -2545 -70 -562 -224 -1081 -474 -1595 -118 -242 -191
-372 -324 -575 -194 -298 -375 -521 -636 -788 -284 -289 -505 -473 -826 -686
-235 -157 -354 -225 -615 -352 -709 -345 -1449 -514 -2245 -514 -665 0 -1293
120 -1919 366 -144 57 -499 229 -646 313 -151 87 -457 292 -590 395 -259 202
-601 530 -794 761 -791 948 -1211 2100 -1211 3325 0 1225 420 2377 1211 3325
193 231 535 559 794 761 133 103 439 308 588 394 661 378 1427 612 2187 669
166 12 572 13 735 1z"/>
</g>
</svg>
